<?xml version="1.0" encoding="utf-8"?>
<!-- Generator: Adobe Illustrator 25.2.3, SVG Export Plug-In . SVG Version: 6.00 Build 0)  -->
<svg version="1.1" id="Capa_1" xmlns="http://www.w3.org/2000/svg" xmlns:xlink="http://www.w3.org/1999/xlink" x="0px" y="0px"
	 viewBox="0 0 512 512" style="enable-background:new 0 0 512 512;" xml:space="preserve">
<style type="text/css">
	.st0{fill:none;stroke:#FFFFFF;stroke-width:24;stroke-miterlimit:10;}
</style>
<path class="st0" d="M448.5,32.5H64.4c-17.6,0-31.9,14.5-31.9,32.3v383.4c0,17.8,14.3,32.3,31.9,32.3h384.1c17.6,0,32-14.5,32-32.3
	V64.8C480.5,47,466.1,32.5,448.5,32.5z M167.9,416.5h-66.4V202.7H168v213.8H167.9z M134.7,173.5c-21.3,0-38.5-17.3-38.5-38.5
	s17.2-38.5,38.5-38.5c21.2,0,38.5,17.3,38.5,38.5C173.2,156.3,156,173.5,134.7,173.5z M416.8,416.5h-66.4v-104
	c0-24.8-0.5-56.7-34.5-56.7c-34.6,0-39.9,27-39.9,54.9v105.8h-66.4V202.7h63.7v29.2h0.9c8.9-16.8,30.6-34.5,62.9-34.5
	c67.2,0,79.7,44.3,79.7,101.9V416.5z"/>
</svg>
